# File created by Blade
# Date/Time:  Wed Sep 24 20:21:23 2014
# Frame Rate: 120.000 fps
#------------------------------------------------------
:FULLY-SPECIFIED
:DEGREES
463
root -7.081315 33.131901 -5.338298 6.365080 13.082997 36.811233
Spine 14.873944 -16.693376 -38.392682
Head -22.607743 6.272996 15.293391
LeftShoulder 12.366801 -25.235449 25.274463
LeftArm 125.497374 -74.097164 -146.435371
LeftForeArm -24.885799 -0.000000 36.978410
LeftHand -14.163748 -0.000000 -31.368543
LeftHandThumb1 -26.253704 0.000000 33.147579
RightShoulder -12.138044 20.120883 -25.214800
RightArm -14.342837 -1.860296 48.911381
RightForeArm -25.318838 -0.000000 15.250042
RightHand -6.488687 -0.000000 6.513350
RightHandThumb1 -24.326973 -0.000000 -32.862282
LeftUpLeg -150.297840 21.494843 -35.606828
LeftLeg 19.996340 -0.000000 -0.000000
LeftFoot 41.791606 24.082920 -9.415580
LeftToeBase 8.280403 -0.000000 -0.000000
RightUpLeg -13.148367 -8.088227 -31.203172
RightLeg 40.049464 -0.000000 -0.000000
RightFoot -24.569101 -18.633101 -0.664556
RightToeBase 0.771001 -0.000000 -0.000000
464
root -7.067570 33.121872 -5.303347 6.310575 13.158842 36.810893
Spine 14.704068 -16.794752 -38.388373
Head -22.256457 6.103174 15.209073
LeftShoulder 12.276263 -25.313754 25.376167
LeftArm 126.718307 -73.911686 -147.540013
LeftForeArm -24.789772 0.000000 37.130108
LeftHand -14.237570 -0.000000 -31.676900
LeftHandThumb1 -26.253704 0.000000 33.147579
RightShoulder -12.160037 20.041918 -25.253594
RightArm -14.425538 -1.821269 48.392096
RightForeArm -24.960072 0.000000 14.882940
RightHand -6.305769 -0.000000 6.234240
RightHandThumb1 -24.326973 -0.000000 -32.862282
LeftUpLeg -150.275379 21.767536 -35.475958
LeftLeg 19.356664 -0.000000 -0.000000
LeftFoot 41.688216 24.316296 -9.629175
LeftToeBase 8.854439 -0.000000 -0.000000
RightUpLeg -13.025518 -8.031500 -31.201350
RightLeg 40.120636 -0.000000 -0.000000
RightFoot -24.561538 -18.845139 -0.790682
RightToeBase 0.548528 -0.000000 -0.000000
465
root -7.058658 33.115021 -5.271321 6.256427 13.189982 36.811913
Spine 14.546479 -16.844292 -38.486486
Head -21.912057 5.952807 15.390341
LeftShoulder 12.197116 -25.303213 25.469659
LeftArm 128.009572 -73.538975 -148.632276
LeftForeArm -24.304755 -0.000000 37.464841
LeftHand -14.181912 -0.000000 -31.820840
LeftHandThumb1 -26.253704 0.000000 33.147579
RightShoulder -12.172314 19.978208 -25.168744
RightArm -14.503815 -1.826239 47.818338
RightForeArm -24.420174 -0.000000 14.567665
RightHand -6.410039 -0.000000 7.374873
RightHandThumb1 -24.326973 -0.000000 -32.862282
LeftUpLeg -150.288634 22.058916 -35.388361
LeftLeg 18.732085 -0.000000 -0.000000
LeftFoot 41.819161 24.223927 -9.418953
LeftToeBase 8.906041 -0.000000 -0.000000
RightUpLeg -12.931873 -7.905135 -31.189556
RightLeg 40.175049 -0.000000 -0.000000
RightFoot -24.561795 -19.060853 -0.827987
RightToeBase 0.447917 -0.000000 -0.000000
466
root -7.050912 33.109472 -5.237183 6.204642 13.224109 36.823791
Spine 14.362119 -16.927288 -38.586675
Head -21.476356 5.786267 15.506644
LeftShoulder 12.115972 -25.373208 25.592842
LeftArm 129.087350 -73.302574 -149.584976
LeftForeArm -23.894978 -0.000000 37.768397
LeftHand -14.238324 -0.000000 -31.816681
LeftHandThumb1 -26.253704 0.000000 33.147579
RightShoulder -12.137844 19.899135 -25.209718
RightArm -14.687631 -1.402812 47.385535
RightForeArm -24.979611 -0.000000 14.251982
RightHand -6.289174 -0.000000 7.884264
RightHandThumb1 -24.326973 -0.000000 -32.862282
LeftUpLeg -150.316843 22.326368 -35.334964
LeftLeg 18.149343 -0.000000 -0.000000
LeftFoot 41.769005 24.148636 -9.305578
LeftToeBase 9.245944 -0.000000 -0.000000
RightUpLeg -12.815247 -7.739181 -31.185684
RightLeg 40.208460 -0.000000 -0.000000
RightFoot -24.588447 -19.265673 -0.833773
RightToeBase 0.351462 -0.000000 -0.000000
467
root -7.043078 33.104576 -5.205168 6.158556 13.272950 36.833250
Spine 14.195963 -17.008857 -38.695175
Head -21.052378 5.581378 15.647869
LeftShoulder 12.031675 -25.488861 25.727264
LeftArm 129.937902 -73.096672 -150.337875
LeftForeArm -23.549147 -0.000000 38.107118
LeftHand -14.285895 -0.000000 -31.699918
LeftHandThumb1 -26.253704 0.000000 33.147579
RightShoulder -12.182724 19.874133 -25.170274
RightArm -14.750188 -1.452632 46.851045
RightForeArm -24.504864 -0.000000 13.917480
RightHand -6.349109 -0.000000 8.473234
RightHandThumb1 -24.326973 -0.000000 -32.862282
LeftUpLeg -150.310513 22.605157 -35.242262
LeftLeg 17.550762 -0.000000 -0.000000
LeftFoot 41.705873 24.189976 -9.282970
LeftToeBase 9.119916 -0.000000 -0.000000
RightUpLeg -12.689717 -7.623182 -31.178242
RightLeg 40.215994 -0.000000 -0.000000
RightFoot -24.618996 -19.481300 -0.896892
RightToeBase 0.368217 -0.000000 -0.000000
468
root -7.039010 33.100889 -5.175564 6.137408 13.352793 36.817160
Spine 14.010429 -17.124252 -38.778913
Head -20.576894 5.308354 15.815098
LeftShoulder 11.967333 -25.558738 25.814589
LeftArm 130.970629 -72.768837 -151.238629
LeftForeArm -23.007925 -0.000000 38.448409
LeftHand -14.308525 -0.000000 -31.957925
LeftHandThumb1 -26.253704 0.000000 33.147579
RightShoulder -12.218947 19.786802 -25.121759
RightArm -14.774371 -1.232047 46.289983
RightForeArm -24.304142 -0.000000 13.600613
RightHand -6.412282 -0.000000 9.181547
RightHandThumb1 -24.326973 -0.000000 -32.862282
LeftUpLeg -150.274154 22.878577 -35.111906
LeftLeg 16.886083 -0.000000 -0.000000
LeftFoot 41.652028 24.250529 -9.183102
LeftToeBase 9.490785 -0.000000 -0.000000
RightUpLeg -12.565023 -7.461897 -31.126907
RightLeg 40.210834 -0.000000 -0.000000
RightFoot -24.608786 -19.815437 -0.949129
RightToeBase 0.304260 -0.000000 -0.000000
469
root -7.034861 33.099409 -5.147515 6.130788 13.446754 36.829334
Spine 13.822061 -17.293031 -38.920455
Head -20.045920 5.004789 16.021015
LeftShoulder 11.846639 -25.552194 25.981576
LeftArm 131.928678 -72.368622 -152.134270
LeftForeArm -22.685358 -0.000000 38.845295
LeftHand -14.397117 0.000000 -31.944423
LeftHandThumb1 -26.253704 0.000000 33.147579
RightShoulder -12.198713 19.702872 -25.062256
RightArm -14.849993 -1.011119 45.758812
RightForeArm -24.273554 0.000000 13.303541
RightHand -6.376849 0.000000 9.560961
RightHandThumb1 -24.326973 -0.000000 -32.862282
LeftUpLeg -150.260340 23.043480 -35.058019
LeftLeg 16.264200 -0.000000 -0.000000
LeftFoot 41.569042 24.341192 -9.050512
LeftToeBase 9.414372 -0.000000 -0.000000
RightUpLeg -12.436858 -7.358637 -31.096098
RightLeg 40.162672 -0.000000 -0.000000
RightFoot -24.621101 -20.045425 -0.995858
RightToeBase 0.353153 -0.000000 -0.000000
470
root -7.033598 33.097881 -5.119636 6.123315 13.546250 36.828491
Spine 13.645098 -17.470199 -39.049131
Head -19.512090 4.647305 16.203486
LeftShoulder 11.718739 -25.615050 26.173135
LeftArm 132.742906 -72.059398 -152.921997
LeftForeArm -22.161496 -0.000000 39.194967
LeftHand -14.387164 -0.000000 -32.008204
LeftHandThumb1 -26.253704 0.000000 33.147579
RightShoulder -12.141406 19.756745 -24.973741
RightArm -15.042725 -0.974865 45.153594
RightForeArm -23.991753 -0.000000 13.064607
RightHand -6.036111 -0.000000 9.198904
RightHandThumb1 -24.326973 -0.000000 -32.862282
LeftUpLeg -150.201986 23.280929 -34.946504
LeftLeg 15.612892 -0.000000 -0.000000
LeftFoot 41.554253 24.297697 -8.911065
LeftToeBase 9.409778 -0.000000 -0.000000
RightUpLeg -12.298859 -7.283330 -31.042173
RightLeg 40.095657 -0.000000 -0.000000
RightFoot -24.600129 -20.349214 -1.129786
RightToeBase 0.392537 -0.000000 -0.000000
471
root -7.033873 33.096305 -5.089655 6.125054 13.648995 36.818497
Spine 13.444569 -17.616744 -39.177517
Head -18.969505 4.256469 16.471235
LeftShoulder 11.614273 -25.586293 26.338525
LeftArm 133.427572 -71.656766 -153.593222
LeftForeArm -21.676975 -0.000000 39.701294
LeftHand -14.492393 -0.000000 -32.063901
LeftHandThumb1 -26.253704 0.000000 33.147579
RightShoulder -12.147458 19.660760 -24.924819
RightArm -15.156939 -0.877905 44.605703
RightForeArm -23.928916 -0.000000 12.822846
RightHand -5.842793 -0.000000 9.513845
RightHandThumb1 -24.326973 -0.000000 -32.862282
LeftUpLeg -150.153150 23.553284 -34.807532
LeftLeg 15.011363 -0.000000 -0.000000
LeftFoot 41.493766 24.329140 -8.914065
LeftToeBase 9.126240 -0.000000 -0.000000
RightUpLeg -12.156018 -7.115593 -30.954195
RightLeg 40.002681 -0.000000 -0.000000
RightFoot -24.552736 -20.798877 -1.293967
RightToeBase 0.411586 -0.000000 -0.000000
472
root -7.036059 33.094968 -5.064212 6.150381 13.754571 36.790173
Spine 13.246832 -17.766966 -39.288328
Head -18.487298 3.837152 16.787023
LeftShoulder 11.525245 -25.636710 26.470760
LeftArm 133.990654 -71.315546 -154.092534
LeftForeArm -21.133589 0.000000 40.139373
LeftHand -14.505065 0.000000 -32.196390
LeftHandThumb1 -26.253704 0.000000 33.147579
RightShoulder -12.115053 19.580835 -24.848052
RightArm -15.357221 -0.703896 43.994065
RightForeArm -23.998101 0.000000 12.659410
RightHand -5.765897 0.000000 9.805262
RightHandThumb1 -24.326973 -0.000000 -32.862282
LeftUpLeg -150.131647 23.788647 -34.661664
LeftLeg 14.425336 -0.000000 -0.000000
LeftFoot 41.441348 24.338097 -8.859433
LeftToeBase 9.560539 -0.000000 -0.000000
RightUpLeg -12.044255 -6.856139 -30.818351
RightLeg 39.890852 -0.000000 -0.000000
RightFoot -24.477893 -21.342763 -1.406846
RightToeBase 0.429231 -0.000000 -0.000000
473
root -7.040339 33.092916 -5.040445 6.179306 13.841575 36.766676
Spine 13.032098 -17.899345 -39.405868
Head -17.970053 3.417863 17.101078
LeftShoulder 11.459363 -25.864118 26.618804
LeftArm 134.308350 -71.182226 -154.418375
LeftForeArm -20.584828 -0.000000 40.563738
LeftHand -14.595422 -0.000000 -32.249738
LeftHandThumb1 -26.253704 0.000000 33.147579
RightShoulder -12.106630 19.528372 -24.851116
RightArm -15.564856 -0.664293 43.475550
RightForeArm -23.947889 -0.000000 12.442690
RightHand -5.732248 -0.000000 9.979984
RightHandThumb1 -24.326973 -0.000000 -32.862282
LeftUpLeg -150.092491 24.058318 -34.527015
LeftLeg 13.804490 -0.000000 -0.000000
LeftFoot 41.522191 24.225931 -8.729045
LeftToeBase 9.482034 -0.000000 -0.000000
RightUpLeg -11.949242 -6.559094 -30.681526
RightLeg 39.795320 -0.000000 -0.000000
RightFoot -24.343371 -22.036813 -1.644036
RightToeBase 0.360664 -0.000000 -0.000000
474
root -7.046278 33.091058 -5.014610 6.197553 13.963375 36.780505
Spine 12.864600 -18.039580 -39.596459
Head -17.473310 3.042000 17.434609
LeftShoulder 11.369330 -25.914677 26.854562
LeftArm 134.833002 -70.882842 -154.964662
LeftForeArm -19.998668 -0.000000 40.963644
LeftHand -14.593051 0.000000 -32.371549
LeftHandThumb1 -26.253704 0.000000 33.147579
RightShoulder -12.075878 19.514917 -24.842663
RightArm -15.860136 -0.517630 42.885583
RightForeArm -24.096326 -0.000000 12.299445
RightHand -5.497189 -0.000000 10.339273
RightHandThumb1 -24.326973 -0.000000 -32.862282
LeftUpLeg -150.067226 24.259937 -34.457068
LeftLeg 13.286173 -0.000000 -0.000000
LeftFoot 41.428312 24.118359 -8.720237
LeftToeBase 10.003949 -0.000000 -0.000000
RightUpLeg -11.811278 -6.257830 -30.570265
RightLeg 39.686143 -0.000000 -0.000000
RightFoot -24.295000 -22.601109 -1.800436
RightToeBase 0.490643 -0.000000 -0.000000
